<svg xmlns="http://www.w3.org/2000/svg" width="44.069" height="44" viewBox="0 0 44.069 44">
  <g id="Instagram" transform="translate(0.07)">
    <g id="Vector_Smart_Object" data-name="Vector Smart Object" transform="translate(-195.671 -73.26)">
      <g id="Groupe_2" data-name="Groupe 2">
        <path id="Tracé_5" data-name="Tracé 5" d="M227.589,88.219a4.213,4.213,0,0,0-2.417-2.414,7.068,7.068,0,0,0-2.366-.438c-1.343-.061-1.746-.074-5.148-.074s-3.8.013-5.148.074a7.064,7.064,0,0,0-2.365.438,4.216,4.216,0,0,0-2.418,2.414,7.031,7.031,0,0,0-.439,2.362c-.061,1.341-.074,1.744-.074,5.14s.013,3.8.074,5.14a7.034,7.034,0,0,0,.439,2.362,4.216,4.216,0,0,0,2.418,2.414,7.065,7.065,0,0,0,2.365.438c1.343.061,1.746.074,5.148.074s3.8-.013,5.148-.074a7.069,7.069,0,0,0,2.366-.438,4.213,4.213,0,0,0,2.417-2.414,7.02,7.02,0,0,0,.439-2.362c.061-1.341.074-1.744.074-5.14s-.013-3.8-.074-5.14A7.016,7.016,0,0,0,227.589,88.219Zm-9.931,14.033a6.532,6.532,0,1,1,6.542-6.532A6.537,6.537,0,0,1,217.658,102.252Zm6.8-11.8a1.526,1.526,0,1,1,1.529-1.526A1.527,1.527,0,0,1,224.459,90.457Z" fill="#fff"/>
        <path id="Tracé_6" data-name="Tracé 6" d="M217.658,91.481a4.24,4.24,0,1,0,4.247,4.24A4.243,4.243,0,0,0,217.658,91.481Z" fill="#fff"/>
        <path id="Tracé_7" data-name="Tracé 7" d="M217.636,73.26a22,22,0,1,0,22.035,22A22.017,22.017,0,0,0,217.636,73.26Zm12.686,27.7a9.325,9.325,0,0,1-.593,3.087,6.507,6.507,0,0,1-3.725,3.72,9.367,9.367,0,0,1-3.092.591c-1.359.062-1.793.077-5.253.077s-3.893-.015-5.252-.077a9.367,9.367,0,0,1-3.092-.591,6.51,6.51,0,0,1-3.726-3.72,9.327,9.327,0,0,1-.592-3.087c-.062-1.356-.076-1.789-.076-5.244s.015-3.887.076-5.244a9.324,9.324,0,0,1,.592-3.087,6.51,6.51,0,0,1,3.726-3.72,9.366,9.366,0,0,1,3.092-.591c1.359-.062,1.793-.077,5.252-.077s3.894.015,5.253.077a9.366,9.366,0,0,1,3.092.591,6.507,6.507,0,0,1,3.725,3.72,9.322,9.322,0,0,1,.593,3.087c.062,1.357.076,1.789.076,5.244S230.383,99.608,230.321,100.965Z" fill="#fff"/>
      </g>
    </g>
  </g>
</svg>
