<svg xmlns="http://www.w3.org/2000/svg" xmlns:xlink="http://www.w3.org/1999/xlink" width="127" height="67.001" viewBox="0 0 127 67.001">
  <defs>
    <pattern id="pattern" preserveAspectRatio="none" width="100%" height="100%" viewBox="0 0 0 0">
      <image/>
    </pattern>
  </defs>
  <g id="Vector_Smart_Object_Double_Click_to_Edit_" data-name="Vector Smart Object (Double Click to Edit)" transform="translate(0 0.001)">
    <path id="Vector_Smart_Object_Double_Click_to_Edit_2" data-name="Vector Smart Object (Double Click to Edit)" d="M101.574,65.75a4.629,4.629,0,0,1-1.95-3.409H102.8a2.352,2.352,0,0,0,1.084,1.375,3.79,3.79,0,0,0,2.019.512,3.134,3.134,0,0,0,2.259-.83,3.324,3.324,0,0,0,.867-2.511V58.933a4.846,4.846,0,0,1-1.7,1.477,5.093,5.093,0,0,1-2.475.591,5.446,5.446,0,0,1-2.92-.818,5.7,5.7,0,0,1-2.087-2.306,7.378,7.378,0,0,1-.765-3.42,7.26,7.26,0,0,1,.765-3.386A5.479,5.479,0,0,1,104.848,48a5.32,5.32,0,0,1,2.487.557A4.575,4.575,0,0,1,109.023,50v-1.8h3.217v12.68a6.731,6.731,0,0,1-.708,3.124,5.239,5.239,0,0,1-2.121,2.181,6.805,6.805,0,0,1-3.422.807A7.336,7.336,0,0,1,101.574,65.75Zm2.453-14.52a3.256,3.256,0,0,0-1.221,1.261,3.941,3.941,0,0,0-.467,1.966,4.069,4.069,0,0,0,.467,1.988,3.357,3.357,0,0,0,1.232,1.307,3.14,3.14,0,0,0,1.632.454,3.3,3.3,0,0,0,1.665-.443,3.215,3.215,0,0,0,1.232-1.272,4.561,4.561,0,0,0,0-3.977,3.217,3.217,0,0,0-1.232-1.272,3.3,3.3,0,0,0-1.665-.443A3.246,3.246,0,0,0,104.027,51.23ZM115.776,66.75l2.737-6.271-5.064-12.271h3.582L120.293,57l3.308-8.794H127L119.175,66.75ZM88.127,60.194a5.814,5.814,0,0,1-2.292-2.284A6.818,6.818,0,0,1,85,54.5a6.682,6.682,0,0,1,.855-3.409A5.933,5.933,0,0,1,88.2,48.81a7.186,7.186,0,0,1,6.616,0,5.936,5.936,0,0,1,2.338,2.283A6.679,6.679,0,0,1,98,54.5a6.543,6.543,0,0,1-.878,3.408,6.068,6.068,0,0,1-2.372,2.284A6.924,6.924,0,0,1,91.412,61,6.679,6.679,0,0,1,88.127,60.194Zm1.038-8.453a3.839,3.839,0,0,0-.924,2.761,3.9,3.9,0,0,0,.9,2.761,2.972,2.972,0,0,0,2.27.966,3.335,3.335,0,0,0,1.632-.42,3.06,3.06,0,0,0,1.22-1.261A4.238,4.238,0,0,0,94.72,54.5a3.783,3.783,0,0,0-.947-2.761,3.118,3.118,0,0,0-2.316-.966A3.045,3.045,0,0,0,89.165,51.741ZM68.142,60.194A5.814,5.814,0,0,1,65.85,57.91a6.818,6.818,0,0,1-.833-3.408,6.68,6.68,0,0,1,.856-3.409,5.933,5.933,0,0,1,2.338-2.283,7.186,7.186,0,0,1,6.616,0,5.936,5.936,0,0,1,2.338,2.283,6.682,6.682,0,0,1,.855,3.409,6.543,6.543,0,0,1-.878,3.408,6.068,6.068,0,0,1-2.372,2.284A6.924,6.924,0,0,1,71.428,61,6.679,6.679,0,0,1,68.142,60.194Zm1.038-8.453a3.839,3.839,0,0,0-.924,2.761,3.9,3.9,0,0,0,.9,2.761,2.972,2.972,0,0,0,2.27.966,3.335,3.335,0,0,0,1.632-.42,3.061,3.061,0,0,0,1.22-1.261,4.238,4.238,0,0,0,.456-2.045,3.783,3.783,0,0,0-.947-2.761,3.118,3.118,0,0,0-2.316-.966A3.045,3.045,0,0,0,69.181,51.741ZM54.729,60.194a5.689,5.689,0,0,1-2.213-2.272,7.721,7.721,0,0,1,0-6.84,5.691,5.691,0,0,1,2.213-2.272A6.424,6.424,0,0,1,57.968,48a6.248,6.248,0,0,1,3.89,1.17,5.692,5.692,0,0,1,2.064,3.284H60.478a2.511,2.511,0,0,0-.924-1.284,2.69,2.69,0,0,0-1.608-.466,2.639,2.639,0,0,0-2.167.989,4.362,4.362,0,0,0-.8,2.806,4.321,4.321,0,0,0,.8,2.783,2.638,2.638,0,0,0,2.167.988,2.423,2.423,0,0,0,2.532-1.726h3.445A5.8,5.8,0,0,1,61.846,59.8,6.132,6.132,0,0,1,57.968,61,6.422,6.422,0,0,1,54.729,60.194Zm-18,.25a4.912,4.912,0,0,1-1.951-1.511,3.821,3.821,0,0,1-.787-2.113h3.217a1.741,1.741,0,0,0,.719,1.2,2.507,2.507,0,0,0,1.563.477,2.435,2.435,0,0,0,1.426-.364,1.1,1.1,0,0,0,.513-.932.982.982,0,0,0-.627-.92,11.837,11.837,0,0,0-2-.67,16.958,16.958,0,0,1-2.316-.7A4.017,4.017,0,0,1,34.938,53.8a2.979,2.979,0,0,1-.65-2.023,3.255,3.255,0,0,1,.6-1.909A4.056,4.056,0,0,1,36.626,48.5a6.524,6.524,0,0,1,2.658-.5,5.442,5.442,0,0,1,3.6,1.124,4.162,4.162,0,0,1,1.483,3.034H41.314a1.646,1.646,0,0,0-.627-1.193,2.836,2.836,0,0,0-2.829-.125,1.012,1.012,0,0,0-.468.886,1.041,1.041,0,0,0,.639.966,9.913,9.913,0,0,0,1.985.67,16.943,16.943,0,0,1,2.258.7,3.99,3.99,0,0,1,1.54,1.124,3.083,3.083,0,0,1,.673,2.011,3.328,3.328,0,0,1-.6,1.954,3.975,3.975,0,0,1-1.734,1.352A6.592,6.592,0,0,1,39.512,61,6.685,6.685,0,0,1,36.729,60.444ZM22.38,60.331a4.41,4.41,0,0,1-1.791-1.841,6.06,6.06,0,0,1-.65-2.9V48.208h3.194v6.931a3.257,3.257,0,0,0,.753,2.306,2.672,2.672,0,0,0,2.053.806,2.7,2.7,0,0,0,2.076-.806,3.255,3.255,0,0,0,.753-2.306V48.208h3.217V60.8H28.767V59.206a4.211,4.211,0,0,1-1.608,1.284A5.011,5.011,0,0,1,25,60.956,5.367,5.367,0,0,1,22.38,60.331Zm57.534.466V43.981h3.194V60.8Zm-33.261,0V48.208h3.194V60.8Zm-32.486,0V50.48L9.9,60.8H7.483L3.194,50.48V60.8H0V44.936H3.627L8.692,56.729l5.065-11.793h3.6V60.8Zm32.7-14.622a1.86,1.86,0,0,1,0-2.659,2.11,2.11,0,0,1,2.806,0,1.86,1.86,0,0,1,0,2.659,2.11,2.11,0,0,1-2.806,0Zm2.752-12.4c0-3.387,3.459-6.141,7.707-6.141a8.945,8.945,0,0,1,4.624,1.259V1.531A1.534,1.534,0,0,1,63.386,0a1.557,1.557,0,0,1,1.634,1.32A6.792,6.792,0,0,0,66.45,3.88l.188.252a15.666,15.666,0,0,0,4.1,3.448c2.1,1.4,4.279,2.855,5.546,5.441a10.155,10.155,0,0,1,1.079,5.063,16.53,16.53,0,0,1-2.232,7.3.977.977,0,0,1-.1.141A11.425,11.425,0,0,1,73.9,27.108a1.537,1.537,0,0,1-2.312-2.026,8.669,8.669,0,0,0,.6-.838,11.068,11.068,0,0,0-7.146-8.367V33.771c0,3.387-3.459,6.141-7.707,6.141S49.621,37.158,49.621,33.771Z" fill="#fff"/>
    <rect id="Place_Your_Image_Here" data-name="Place Your Image Here" fill="url(#pattern)"/>
  </g>
</svg>
