<svg xmlns="http://www.w3.org/2000/svg" width="44" height="44" viewBox="0 0 44 44">
  <g id="Twitter" transform="translate(0)">
    <g id="Vector_Smart_Object" data-name="Vector Smart Object" transform="translate(-122.1 -73.26)">
      <path id="Tracé_3" data-name="Tracé 3" d="M144.1,73.26a22,22,0,1,0,22,22A22,22,0,0,0,144.1,73.26ZM155.572,91.3a14.423,14.423,0,0,1-22.189,12.808,10.193,10.193,0,0,0,7.508-2.1,5.074,5.074,0,0,1-4.737-3.523,5.072,5.072,0,0,0,2.29-.087,5.077,5.077,0,0,1-4.068-5.037,5.048,5.048,0,0,0,2.3.634,5.077,5.077,0,0,1-1.569-6.771,14.391,14.391,0,0,0,10.452,5.3A5.075,5.075,0,0,1,154.2,87.9a10.159,10.159,0,0,0,3.22-1.231,5.079,5.079,0,0,1-2.229,2.806,10.131,10.131,0,0,0,2.912-.8A10.273,10.273,0,0,1,155.572,91.3Z" fill="#fff"/>
    </g>
  </g>
</svg>
