<svg xmlns="http://www.w3.org/2000/svg" width="44" height="44" viewBox="0 0 44 44">
  <g id="WhatsApp" transform="translate(0)">
    <g id="Vector_Smart_Object" data-name="Vector Smart Object" transform="translate(-267.15 -142.251)">
      <g id="Groupe_1" data-name="Groupe 1">
        <path id="Tracé_1" data-name="Tracé 1" d="M289.441,152.56a10.485,10.485,0,0,0-10.451,9.41,9.668,9.668,0,0,0-.053,1.012,10.32,10.32,0,0,0,2,6.112l-1.31,3.872,4.036-1.287a10.513,10.513,0,0,0,16.283-8.7c0-.275-.012-.544-.035-.813A10.483,10.483,0,0,0,289.441,152.56Zm6.129,14.721a3.053,3.053,0,0,1-2.064,1.444c-.562.053-.562.456-3.679-.754a12.577,12.577,0,0,1-5.229-4.591,6.907,6.907,0,0,1-1.094-2.106,3.858,3.858,0,0,1-.158-1.035,3.4,3.4,0,0,1,1.07-2.538,1.133,1.133,0,0,1,.819-.38c.2,0,.409.029.585.029s.439-.1.69.5.871,2.106.947,2.258a.549.549,0,0,1,.023.532,3.452,3.452,0,0,1-.193.363l-.111.146c-.158.175-.322.392-.462.532s-.31.316-.135.62a9.081,9.081,0,0,0,1.7,2.1,8.278,8.278,0,0,0,2.462,1.509c.31.152.485.129.667-.076s.766-.883.971-1.188.409-.257.69-.152,1.784.837,2.094.989.509.228.585.351A2.512,2.512,0,0,1,295.571,167.281Z" fill="#fff"/>
        <path id="Tracé_2" data-name="Tracé 2" d="M289.15,142.251a22,22,0,1,0,22,22A22,22,0,0,0,289.15,142.251Zm.291,33.131a12.508,12.508,0,0,1-6.036-1.544l-6.919,2.2,2.251-6.65a12.306,12.306,0,0,1-1.789-6.4c0-.181.006-.362.012-.544a12.5,12.5,0,0,1,24.968.228c.006.105.006.21.006.316A12.445,12.445,0,0,1,289.441,175.381Z" fill="#fff"/>
      </g>
    </g>
  </g>
</svg>
